<svg version="1.1" id="Layer_1" xmlns="http://www.w3.org/2000/svg" xmlns:xlink="http://www.w3.org/1999/xlink" x="0px" y="0px"
	 width="100%" viewBox="0 0 100 100" enable-background="new 0 0 100 100" xml:space="preserve">
<path fill="#FDFDFE" opacity="1.000000" stroke="none" 
	d="
M55.000000,101.000000 
	C36.666668,101.000000 18.833340,101.000000 1.000007,101.000000 
	C1.000005,67.666679 1.000005,34.333351 1.000002,1.000021 
	C34.333317,1.000014 67.666634,1.000014 100.999969,1.000007 
	C100.999977,34.333313 100.999977,67.666626 100.999985,100.999969 
	C85.833336,101.000000 70.666664,101.000000 55.000000,101.000000 
M30.060158,83.782753 
	C30.547626,89.614151 32.331219,91.769463 37.309246,91.836845 
	C46.439529,91.960442 55.572739,91.889961 64.704620,91.863129 
	C68.769402,91.851189 71.037216,89.802437 72.016792,85.808830 
	C72.427628,84.133888 73.552322,82.316200 74.895210,81.241684 
	C81.359955,76.068901 86.815407,70.235687 89.689713,61.561295 
	C90.358330,58.361187 91.026947,55.161083 91.938240,51.077774 
	C93.432579,32.688213 84.488358,19.325682 69.264153,11.431009 
	C41.893494,-2.762335 12.557682,17.417259 10.071974,43.831612 
	C10.142148,46.569004 10.212322,49.306393 10.171821,52.816563 
	C12.647208,58.941391 15.122596,65.066223 17.808489,71.851967 
	C21.872635,75.563393 25.936781,79.274818 30.060158,83.782753 
z"/>
<path fill="#3B234E" opacity="1.000000" stroke="none" 
	d="
M17.597984,71.191048 
	C15.122596,65.066223 12.647208,58.941391 10.652828,52.419083 
	C13.807153,52.021606 16.480469,52.021606 19.153784,52.021606 
	C19.285669,51.604923 19.417553,51.188244 19.549438,50.771561 
	C16.476101,48.164871 13.402761,45.558186 10.329424,42.951500 
	C12.557682,17.417259 41.893494,-2.762335 69.264153,11.431009 
	C84.488358,19.325682 93.432579,32.688213 91.434113,51.519878 
	C84.242401,51.829868 83.714668,59.349957 78.390610,60.911716 
	C78.572319,61.284187 78.754036,61.656658 78.935753,62.029129 
	C82.336006,62.029129 85.736267,62.029129 89.136520,62.029129 
	C86.815407,70.235687 81.359955,76.068901 74.895210,81.241684 
	C73.552322,82.316200 72.427628,84.133888 72.016792,85.808830 
	C71.037216,89.802437 68.769402,91.851189 64.704620,91.863129 
	C55.572739,91.889961 46.439529,91.960442 37.309246,91.836845 
	C32.331219,91.769463 30.547626,89.614151 30.040092,82.966248 
	C29.815598,75.316193 24.777760,70.871826 17.597984,71.191048 
M65.053017,55.087788 
	C55.376026,55.142525 45.699036,55.197258 35.293701,55.248810 
	C34.250107,57.286144 32.411930,59.283340 32.306622,61.368069 
	C31.938576,68.653824 32.065979,75.972427 32.252296,83.272247 
	C32.293274,84.877831 33.350910,86.457458 34.512459,88.692566 
	C41.632111,88.867516 48.751774,89.188004 55.871407,89.187241 
	C70.876305,89.185631 69.785507,90.997124 69.651299,75.245155 
	C69.599487,69.164276 69.025322,63.087849 68.553833,56.436680 
	C67.693756,56.042023 66.833672,55.647362 65.053017,55.087788 
M63.489342,18.451105 
	C49.411388,12.942999 35.725662,16.322657 27.068010,27.373707 
	C21.047310,35.058823 18.927702,46.646042 22.987280,53.726368 
	C23.238237,54.216110 23.489195,54.705853 23.854952,55.898815 
	C25.462805,58.520046 27.070660,61.141277 29.239307,64.676750 
	C29.947224,60.681259 30.371143,58.288658 30.941996,55.458771 
	C30.941996,55.458771 31.034672,55.006866 31.665213,54.690506 
	C33.166309,53.980904 34.667404,53.271301 37.029320,52.746883 
	C39.957966,52.641983 42.886608,52.537083 46.673946,52.723640 
	C49.082584,52.768459 51.491219,52.813278 54.682640,52.957779 
	C56.401920,52.703503 58.121204,52.449230 60.651951,52.198151 
	C63.072575,52.411282 65.493202,52.624413 68.543335,53.233639 
	C70.159447,56.476093 71.775558,59.718552 73.316414,62.810028 
	C81.300697,54.270744 82.614700,39.994392 75.916824,29.322165 
	C74.015930,27.207817 72.115036,25.093470 69.841354,22.364571 
	C67.880341,21.245926 65.919319,20.127281 63.489342,18.451105 
M17.076662,36.380611 
	C17.657995,36.127598 18.239328,35.874584 18.820663,35.621574 
	C18.337088,35.141071 17.853512,34.660568 17.369936,34.180065 
	C17.115992,34.758438 16.862047,35.336807 17.076662,36.380611 
M65.297440,14.528400 
	C64.886459,14.396286 64.480309,14.241878 64.060417,14.150830 
	C63.976227,14.132574 63.839745,14.355474 63.727375,14.467183 
	C64.138435,14.599548 64.549500,14.731913 65.297440,14.528400 
M44.483292,12.586744 
	C44.483292,12.586744 44.418076,12.477070 44.483292,12.586744 
z"/>
<path fill="#523265" opacity="1.000000" stroke="none" 
	d="
M89.413116,61.795212 
	C85.736267,62.029129 82.336006,62.029129 78.935753,62.029129 
	C78.754036,61.656658 78.572319,61.284187 78.390610,60.911716 
	C83.714668,59.349957 84.242401,51.829868 91.312775,51.961479 
	C91.026947,55.161083 90.358330,58.361187 89.413116,61.795212 
z"/>
<path fill="#533266" opacity="1.000000" stroke="none" 
	d="
M17.703236,71.521507 
	C24.777760,70.871826 29.815598,75.316193 30.010477,82.567993 
	C25.936781,79.274818 21.872635,75.563393 17.703236,71.521507 
z"/>
<path fill="#58386B" opacity="1.000000" stroke="none" 
	d="
M10.200699,43.391556 
	C13.402761,45.558186 16.476101,48.164871 19.549438,50.771561 
	C19.417553,51.188244 19.285669,51.604923 19.153784,52.021606 
	C16.480469,52.021606 13.807153,52.021606 10.708166,52.032696 
	C10.212322,49.306393 10.142148,46.569004 10.200699,43.391556 
z"/>
<path fill="#E6CDB1" opacity="1.000000" stroke="none" 
	d="
M68.689133,57.009392 
	C69.025322,63.087849 69.599487,69.164276 69.651299,75.245155 
	C69.785507,90.997124 70.876305,89.185631 55.871407,89.187241 
	C48.751774,89.188004 41.632111,88.867516 34.241928,87.899681 
	C33.972290,78.794922 33.863346,70.480423 34.062538,62.173302 
	C34.104675,60.415977 35.273705,58.685680 36.399712,56.964333 
	C46.608891,56.970768 56.341866,56.955791 66.400795,56.954552 
	C67.380875,56.981995 68.035004,56.995693 68.689133,57.009392 
M47.396225,76.935707 
	C51.223495,75.514198 51.556271,72.305367 50.683006,69.169540 
	C50.319660,67.864792 48.093731,66.174736 46.841022,66.272797 
	C45.557011,66.373306 43.796284,68.254982 43.360744,69.694817 
	C42.436810,72.749214 43.045090,75.647850 47.396225,76.935707 
M66.337357,75.881638 
	C66.497353,73.334900 66.878944,70.776817 66.749336,68.244904 
	C66.639725,66.103424 62.154102,64.799667 61.306469,66.713684 
	C60.213753,69.181129 60.139591,72.302940 60.460644,75.045303 
	C60.537571,75.702400 63.909012,75.973801 66.337357,75.881638 
M57.284000,76.577850 
	C57.590691,73.148140 57.897385,69.718430 58.279282,65.447678 
	C50.999107,69.845764 50.890285,72.785324 57.284000,76.577850 
M39.559013,69.891487 
	C40.087193,70.322433 40.615368,70.753380 41.143543,71.184326 
	C41.229591,69.806023 41.791172,67.460342 41.314793,67.226181 
	C39.723095,66.443741 37.759865,66.417114 35.938957,66.100960 
	C35.896412,66.495010 35.853867,66.889061 35.811325,67.283104 
	C37.110584,67.927071 38.409843,68.571037 39.559013,69.891487 
M41.229515,75.288338 
	C37.212746,72.969032 37.212746,72.969032 35.071583,77.313087 
	C37.678528,76.744888 39.650337,76.315117 41.229515,75.288338 
z"/>
<path fill="#7D478E" opacity="1.000000" stroke="none" 
	d="
M53.899857,52.858101 
	C51.491219,52.813278 49.082584,52.768459 46.292332,52.266960 
	C48.250275,48.885227 50.254047,45.583244 53.011253,43.127014 
	C56.769768,39.778778 61.310616,37.315811 65.123367,34.019138 
	C68.142494,31.408665 70.055634,28.021961 67.037582,23.704655 
	C68.116920,23.266935 69.165527,23.123030 70.214134,22.979122 
	C72.115036,25.093470 74.015930,27.207817 75.788376,30.040592 
	C75.445206,32.514893 75.221474,34.269718 75.017776,36.026871 
	C74.670753,39.020435 74.336304,42.015457 74.002731,44.621269 
	C73.689629,42.806747 73.370377,41.380825 72.878136,39.649147 
	C71.090790,39.468815 69.476440,39.594231 67.862091,39.719650 
	C68.239037,41.827194 68.615982,43.934738 69.229828,46.310211 
	C70.649467,46.717697 71.832207,46.857250 72.862892,47.296265 
	C71.111839,49.343002 69.512833,51.090275 67.913826,52.837547 
	C65.493202,52.624413 63.072575,52.411282 60.294434,51.768982 
	C59.194298,49.611069 58.451675,47.882328 57.709053,46.153587 
	C56.470955,47.902756 55.198910,49.629635 54.023697,51.420078 
	C53.791374,51.774021 53.931496,52.372433 53.899857,52.858101 
z"/>
<path fill="#A05EAE" opacity="1.000000" stroke="none" 
	d="
M67.006851,23.998470 
	C70.055634,28.021961 68.142494,31.408665 65.123367,34.019138 
	C61.310616,37.315811 56.769768,39.778778 53.011253,43.127014 
	C50.254047,45.583244 48.250275,48.885227 45.862984,52.121231 
	C42.886608,52.537083 39.957966,52.641983 36.486229,52.338890 
	C34.420174,51.428391 32.897209,50.925884 31.374245,50.423378 
	C31.261053,51.951206 31.147861,53.479038 31.034672,55.006866 
	C31.034672,55.006866 30.941996,55.458771 30.491367,55.648300 
	C27.940542,55.623753 25.840349,55.409676 23.740154,55.195595 
	C23.489195,54.705853 23.238237,54.216110 22.985752,52.976601 
	C23.311527,48.811806 23.638832,45.396774 24.334106,41.981400 
	C26.134716,40.984871 27.567354,39.988689 29.219772,39.102531 
	C29.713091,39.414104 29.902323,39.676468 29.858635,40.338524 
	C29.928308,42.299374 30.146599,43.921341 30.364889,45.543304 
	C31.597509,45.050690 32.847340,44.596733 34.059128,44.057320 
	C36.501122,42.970295 38.707607,41.093597 41.638580,43.414116 
	C42.625507,44.195480 44.990303,44.434303 46.002743,43.788406 
	C51.926750,40.009113 57.651115,35.914585 63.388348,31.849512 
	C63.810669,31.550278 63.804146,30.645803 64.300163,29.848072 
	C64.725677,27.787258 64.848038,25.901083 65.309753,24.010759 
	C66.101692,24.003899 66.554268,24.001184 67.006851,23.998470 
z"/>
<path fill="#A764B4" opacity="1.000000" stroke="none" 
	d="
M67.037582,23.704655 
	C66.554268,24.001184 66.101692,24.003899 64.977234,23.853928 
	C59.396255,22.626190 58.302471,23.548597 57.729969,29.134504 
	C55.282444,30.521238 53.139725,31.762802 50.659122,33.005013 
	C49.545620,33.336277 48.770004,33.666893 47.595833,33.998230 
	C44.925442,33.942970 42.319687,34.467628 42.201912,30.740280 
	C44.502495,28.806650 47.048622,27.330256 44.976479,23.696392 
	C44.206287,22.868347 43.572994,22.324200 43.012039,21.422531 
	C45.502777,20.047209 47.884102,18.295610 50.347633,18.171148 
	C54.858906,17.943235 59.418724,18.676292 63.958302,19.008636 
	C65.919319,20.127281 67.880341,21.245926 70.027740,22.671848 
	C69.165527,23.123030 68.116920,23.266935 67.037582,23.704655 
z"/>
<path fill="#BC78C5" opacity="1.000000" stroke="none" 
	d="
M63.723824,18.729870 
	C59.418724,18.676292 54.858906,17.943235 50.347633,18.171148 
	C47.884102,18.295610 45.502777,20.047209 42.637840,21.470575 
	C38.156132,22.747673 34.655293,24.250444 33.516022,28.993404 
	C31.112545,31.354227 29.042681,33.658848 26.667894,36.130318 
	C25.564026,38.192028 24.765081,40.086884 23.966137,41.981743 
	C23.638832,45.396774 23.311527,48.811806 22.976681,52.692413 
	C18.927702,46.646042 21.047310,35.058823 27.068010,27.373707 
	C35.725662,16.322657 49.411388,12.942999 63.723824,18.729870 
z"/>
<path fill="#5F3372" opacity="1.000000" stroke="none" 
	d="
M68.228577,53.035591 
	C69.512833,51.090275 71.111839,49.343002 72.854057,47.298656 
	C72.997269,47.001583 72.996063,47.017189 73.240829,46.844673 
	C73.660141,46.112328 73.834679,45.552498 74.004562,44.995293 
	C73.999908,44.997917 73.996574,45.009869 73.996574,45.009869 
	C74.336304,42.015457 74.670753,39.020435 75.017776,36.026871 
	C75.221474,34.269718 75.445206,32.514893 75.829811,30.379261 
	C82.614700,39.994392 81.300697,54.270744 73.316414,62.810028 
	C71.775558,59.718552 70.159447,56.476093 68.228577,53.035591 
z"/>
<path fill="#D0C1BC" opacity="1.000000" stroke="none" 
	d="
M35.923515,56.942928 
	C35.273705,58.685680 34.104675,60.415977 34.062538,62.173302 
	C33.863346,70.480423 33.972290,78.794922 33.955887,87.577919 
	C33.350910,86.457458 32.293274,84.877831 32.252296,83.272247 
	C32.065979,75.972427 31.938576,68.653824 32.306622,61.368069 
	C32.411930,59.283340 34.250107,57.286144 35.648827,55.532936 
	C35.977135,56.192352 35.950325,56.567642 35.923515,56.942928 
z"/>
<path fill="#E0CFC3" opacity="1.000000" stroke="none" 
	d="
M36.399712,56.964333 
	C35.950325,56.567642 35.977135,56.192352 36.012997,55.534531 
	C45.699036,55.197258 55.376026,55.142525 65.523514,55.452332 
	C66.020950,56.191525 66.047897,56.566170 66.074844,56.940819 
	C56.341866,56.955791 46.608891,56.970768 36.399712,56.964333 
z"/>
<path fill="#824A92" opacity="1.000000" stroke="none" 
	d="
M23.797554,55.547203 
	C25.840349,55.409676 27.940542,55.623753 30.417900,55.866943 
	C30.371143,58.288658 29.947224,60.681259 29.239307,64.676750 
	C27.070660,61.141277 25.462805,58.520046 23.797554,55.547203 
z"/>
<path fill="#5F3372" opacity="1.000000" stroke="none" 
	d="
M54.291248,52.907940 
	C53.931496,52.372433 53.791374,51.774021 54.023697,51.420078 
	C55.198910,49.629635 56.470955,47.902756 57.709053,46.153587 
	C58.451675,47.882328 59.194298,49.611069 59.888702,51.767387 
	C58.121204,52.449230 56.401920,52.703503 54.291248,52.907940 
z"/>
<path fill="#7A458C" opacity="1.000000" stroke="none" 
	d="
M31.349941,54.848686 
	C31.147861,53.479038 31.261053,51.951206 31.374245,50.423378 
	C32.897209,50.925884 34.420174,51.428391 36.055817,52.246300 
	C34.667404,53.271301 33.166309,53.980904 31.349941,54.848686 
z"/>
<path fill="#3E2551" opacity="1.000000" stroke="none" 
	d="
M16.842384,36.147896 
	C16.862047,35.336807 17.115992,34.758438 17.369936,34.180065 
	C17.853512,34.660568 18.337088,35.141071 18.820663,35.621574 
	C18.239328,35.874584 17.657995,36.127598 16.842384,36.147896 
z"/>
<path fill="#D0C1BC" opacity="1.000000" stroke="none" 
	d="
M66.400787,56.954556 
	C66.047897,56.566170 66.020950,56.191525 65.983795,55.534790 
	C66.833672,55.647362 67.693756,56.042023 68.621483,56.723038 
	C68.035004,56.995693 67.380875,56.981995 66.400787,56.954556 
z"/>
<path fill="#442E57" opacity="1.000000" stroke="none" 
	d="
M65.128998,14.696339 
	C64.549500,14.731913 64.138435,14.599548 63.727375,14.467183 
	C63.839745,14.355474 63.976227,14.132574 64.060417,14.150830 
	C64.480309,14.241878 64.886459,14.396286 65.128998,14.696339 
z"/>
<path fill="#3E2551" opacity="1.000000" stroke="none" 
	d="
M44.450684,12.531907 
	C44.418076,12.477070 44.483292,12.586744 44.450684,12.531907 
z"/>
<path fill="#FAF3E9" opacity="1.000000" stroke="none" 
	d="
M47.007256,76.937317 
	C43.045090,75.647850 42.436810,72.749214 43.360744,69.694817 
	C43.796284,68.254982 45.557011,66.373306 46.841022,66.272797 
	C48.093731,66.174736 50.319660,67.864792 50.683006,69.169540 
	C51.556271,72.305367 51.223495,75.514198 47.007256,76.937317 
z"/>
<path fill="#FAF3E9" opacity="1.000000" stroke="none" 
	d="
M66.051308,76.152115 
	C63.909012,75.973801 60.537571,75.702400 60.460644,75.045303 
	C60.139591,72.302940 60.213753,69.181129 61.306469,66.713684 
	C62.154102,64.799667 66.639725,66.103424 66.749336,68.244904 
	C66.878944,70.776817 66.497353,73.334900 66.051308,76.152115 
z"/>
<path fill="#FBF4EB" opacity="1.000000" stroke="none" 
	d="
M56.927238,76.558624 
	C50.890285,72.785324 50.999107,69.845764 58.279282,65.447678 
	C57.897385,69.718430 57.590691,73.148140 56.927238,76.558624 
z"/>
<path fill="#FAF3E9" opacity="1.000000" stroke="none" 
	d="
M39.634056,69.553246 
	C38.409843,68.571037 37.110584,67.927071 35.811325,67.283104 
	C35.853867,66.889061 35.896412,66.495010 35.938957,66.100960 
	C37.759865,66.417114 39.723095,66.443741 41.314793,67.226181 
	C41.791172,67.460342 41.229591,69.806023 41.143543,71.184326 
	C40.615368,70.753380 40.087193,70.322433 39.634056,69.553246 
z"/>
<path fill="#FAF3E9" opacity="1.000000" stroke="none" 
	d="
M41.425831,75.586845 
	C39.650337,76.315117 37.678528,76.744888 35.071583,77.313087 
	C37.212746,72.969032 37.212746,72.969032 41.425831,75.586845 
z"/>
<path fill="#66387A" opacity="1.000000" stroke="none" 
	d="
M73.006104,46.999191 
	C71.832207,46.857250 70.649467,46.717697 69.233490,45.920090 
	C70.350540,43.492989 71.700836,41.723942 73.051132,39.954899 
	C73.370377,41.380825 73.689629,42.806747 74.002731,44.621269 
	C73.996574,45.009869 73.999908,44.997917 73.757957,45.166290 
	C73.342697,45.895504 73.169380,46.456348 72.996063,47.017189 
	C72.996063,47.017189 72.997269,47.001583 73.006104,46.999191 
z"/>
<path fill="#5B316F" opacity="1.000000" stroke="none" 
	d="
M72.878136,39.649147 
	C71.700836,41.723942 70.350540,43.492989 68.996582,45.652161 
	C68.615982,43.934738 68.239037,41.827194 67.862091,39.719650 
	C69.476440,39.594231 71.090790,39.468815 72.878136,39.649147 
z"/>
<path fill="#A561B2" opacity="1.000000" stroke="none" 
	d="
M50.997009,33.004364 
	C53.139725,31.762802 55.282444,30.521238 58.105827,29.178909 
	C60.523331,29.392998 62.260166,29.707853 63.997002,30.022709 
	C63.804146,30.645803 63.810669,31.550278 63.388348,31.849512 
	C57.651115,35.914585 51.926750,40.009113 46.002743,43.788406 
	C44.990303,44.434303 42.625507,44.195480 41.638580,43.414116 
	C38.707607,41.093597 36.501122,42.970295 34.059128,44.057320 
	C32.847340,44.596733 31.597509,45.050690 30.364889,45.543304 
	C30.146599,43.921341 29.928308,42.299374 30.267109,40.338596 
	C34.548527,38.976585 38.272854,37.953388 42.551147,36.778000 
	C44.001476,37.784622 46.333076,41.952843 48.380123,36.001991 
	C49.995125,35.888268 51.229549,35.774532 53.100677,35.602135 
	C52.126896,34.399635 51.561951,33.702000 50.997009,33.004364 
z"/>
<path fill="#A561B3" opacity="1.000000" stroke="none" 
	d="
M47.999542,36.001984 
	C46.333076,41.952843 44.001476,37.784622 42.551147,36.778000 
	C38.272854,37.953388 34.548527,38.976585 30.415726,39.999710 
	C29.902323,39.676468 29.713091,39.414104 29.181902,38.788078 
	C28.273773,37.563557 27.623297,36.763512 26.972820,35.963470 
	C29.042681,33.658848 31.112545,31.354227 33.593040,29.295376 
	C34.337200,30.025923 34.670719,30.510698 35.251137,31.271057 
	C37.666409,31.368349 39.834785,31.190058 42.003159,31.011766 
	C42.319687,34.467628 44.925442,33.942970 47.597153,34.332329 
	C47.997871,35.111134 47.998707,35.556561 47.999542,36.001984 
z"/>
<path fill="#7E468E" opacity="1.000000" stroke="none" 
	d="
M64.300163,29.848072 
	C62.260166,29.707853 60.523331,29.392998 58.410637,29.033737 
	C58.302471,23.548597 59.396255,22.626190 64.637878,23.858074 
	C64.848038,25.901083 64.725677,27.787258 64.300163,29.848072 
z"/>
<path fill="#A561B2" opacity="1.000000" stroke="none" 
	d="
M26.667896,36.130318 
	C27.623297,36.763512 28.273773,37.563557 28.962122,38.678055 
	C27.567354,39.988689 26.134716,40.984871 24.334106,41.981400 
	C24.765081,40.086884 25.564026,38.192028 26.667896,36.130318 
z"/>
<path fill="#834A94" opacity="1.000000" stroke="none" 
	d="
M42.201912,30.740280 
	C39.834785,31.190058 37.666409,31.368349 35.520676,31.049141 
	C36.744461,25.464724 40.041077,23.429516 45.113380,23.980291 
	C47.048622,27.330256 44.502495,28.806650 42.201912,30.740280 
z"/>
<path fill="#723E84" opacity="1.000000" stroke="none" 
	d="
M44.976479,23.696392 
	C40.041077,23.429516 36.744461,25.464724 35.273781,30.773556 
	C34.670719,30.510698 34.337200,30.025923 33.926655,29.239174 
	C34.655293,24.250444 38.156132,22.747673 42.565506,21.828098 
	C43.572994,22.324200 44.206287,22.868347 44.976479,23.696392 
z"/>
<path fill="#A05EAE" opacity="1.000000" stroke="none" 
	d="
M48.380123,36.001991 
	C47.998707,35.556561 47.997871,35.111134 47.995712,34.331612 
	C48.770004,33.666893 49.545620,33.336277 50.659122,33.005013 
	C51.561951,33.702000 52.126896,34.399635 53.100677,35.602135 
	C51.229549,35.774532 49.995125,35.888268 48.380123,36.001991 
z"/>
<path fill="#7D478E" opacity="1.000000" stroke="none" 
	d="
M73.240829,46.844673 
	C73.169380,46.456348 73.342697,45.895504 73.762604,45.163666 
	C73.834679,45.552498 73.660141,46.112328 73.240829,46.844673 
z"/>
</svg>